<svg width="35" height="35" viewBox="0 0 35 35" fill="none" xmlns="http://www.w3.org/2000/svg">
<rect width="35" height="35" rx="5" fill="#5AD7FF"/>
<path d="M9.46213 5C8.65614 5 8 5.66832 8 6.48927V28.5066C8 29.3276 8.65614 29.9959 9.46213 29.9959H22.516V27.071C22.516 25.7797 23.5448 24.7318 24.8125 24.7318H28V6.48927C28 5.66832 27.3439 5 26.5379 5H9.46213ZM24.1887 18.6386H11.8113V17.6114H24.1847V18.6386H24.1887ZM24.1887 15.0495H11.8113V14.0223H24.1847V15.0495H24.1887ZM24.1887 11.4645H11.8113V10.4373H24.1847V11.4645H24.1887Z" fill="white"/>
<path d="M23.3503 27.071V29.4349L27.3641 25.5776H24.8125C24.0065 25.5818 23.3503 26.2501 23.3503 27.071Z" fill="white"/>
</svg>
