<svg width="36" height="35" viewBox="0 0 36 35" fill="none" xmlns="http://www.w3.org/2000/svg">
<rect x="0.278809" width="35" height="35" rx="5" fill="#7B68EE"/>
<path d="M24.4163 15.3987H23.9119V13.1337C23.9119 9.75265 21.1594 7 17.7805 7C14.3983 7 11.649 9.75265 11.649 13.137V15.402H11.1446C10.1161 15.3987 9.27881 16.2366 9.27881 17.2676V26.1311C9.27881 27.1621 10.1161 28 11.1446 28H24.413C25.4415 28 26.2788 27.1621 26.2788 26.1311V17.2676C26.2821 16.2366 25.4448 15.3987 24.4163 15.3987ZM18.5617 21.8204V22.9791C18.5617 23.1526 18.4233 23.2933 18.2486 23.2933H17.3091C17.1376 23.2933 16.9959 23.1526 16.9959 22.9791V21.8204C16.5673 21.5553 16.2805 21.0873 16.2805 20.5472C16.2805 19.7191 16.9497 19.0482 17.7772 19.0482C18.6046 19.0482 19.2738 19.7191 19.2738 20.5472C19.2771 21.0873 18.987 21.5553 18.5617 21.8204ZM21.222 15.3987H14.3356V13.1337C14.3356 11.2321 15.8784 9.68719 17.7805 9.68719C19.6792 9.68719 21.222 11.2321 21.222 13.1337V15.3987Z" fill="white"/>
</svg>
