<svg width="35" height="35" viewBox="0 0 35 35" fill="none" xmlns="http://www.w3.org/2000/svg">
<rect width="35" height="35" rx="5" fill="#DD8BEB"/>
<path d="M19.4352 14.8225H21.3239C21.6345 14.8225 21.8879 14.569 21.8879 14.2584L21.8808 10.4669C21.8808 10.1563 21.6273 9.90283 21.3167 9.90283H19.4281C19.1175 9.90283 18.864 10.1563 18.864 10.4669L18.8676 14.2584C18.8712 14.5726 19.1246 14.8261 19.4352 14.8225Z" fill="white"/>
<path d="M27.9929 12.0343C27.9929 11.6701 27.9036 11.3738 27.6715 11.1382C27.5216 10.9882 25.8722 9.34238 25.0261 8.49268C24.7226 8.19636 24.1621 8 23.7444 8C23.3267 8 9.66369 8.01071 9.66369 8.01071C8.74616 8.01071 8 8.75687 8 9.6744L8.01071 27.3645C8.01071 28.2856 8.75687 29.0282 9.67797 29.0282L26.3363 29.0175C27.2574 29.0175 28 28.2713 28 27.3502C28 27.3502 27.9929 12.2592 27.9929 12.0343ZM22.9125 9.03177L22.9161 14.7262C22.9161 15.2224 22.4056 15.6937 21.9129 15.6973L14.6762 15.7008C14.1799 15.7008 13.7158 15.226 13.7158 14.7333L13.7122 9.03891L22.9125 9.03177ZM25.1974 27.3217H10.8026V19.3674C10.8026 18.7676 11.2667 18.282 11.8415 18.282H24.1549C24.7297 18.282 25.1939 18.7676 25.1939 19.3674V27.3217H25.1974Z" fill="white"/>
</svg>
