<svg width="20" height="21" viewBox="0 0 20 21" fill="none" xmlns="http://www.w3.org/2000/svg">
<path d="M18.1139 2.40833C19.1554 2.40833 20 3.25915 20 4.30841V19.0089C20 20.0582 19.1554 20.909 18.1139 20.909H1.88613C0.844578 20.909 0 20.0582 0 19.0089V4.30841C0 3.25915 0.844578 2.40833 1.88613 2.40833H2.54722V3.61253C2.54722 4.41714 3.19752 5.06953 3.99352 5.06953C4.79223 5.06953 5.43983 4.41442 5.43983 3.61253V2.40833H14.5602V3.61253C14.5602 4.41714 15.2105 5.06953 16.0065 5.06953C16.8052 5.06953 17.4528 4.41442 17.4528 3.61253V2.40833H18.1139ZM16.9185 7.73074H3.08149C2.66325 7.73074 2.32596 8.0379 2.32596 8.41847V17.9406C2.32596 18.3212 2.66325 18.6284 3.08149 18.6284H16.9185C17.3368 18.6284 17.674 18.3212 17.674 17.9406V8.41847C17.6713 8.0379 17.3341 7.73074 16.9185 7.73074Z" fill="#02B989"/>
<path d="M16.6973 0.695882V2.40569V3.60989C16.6973 3.99317 16.387 4.30577 16.0065 4.30577C15.626 4.30577 15.3157 3.99317 15.3157 3.60989V2.4084V0.695882C15.313 0.312603 15.6233 0 16.0065 0C16.387 0 16.6973 0.312603 16.6973 0.695882Z" fill="#02B989"/>
<path d="M4.6843 0.695882V2.40569V3.60989C4.6843 3.99317 4.37399 4.30577 3.99352 4.30577C3.61306 4.30577 3.30275 3.99317 3.30275 3.60989V2.4084V0.695882C3.30275 0.309885 3.61306 0 3.99352 0C4.37399 0 4.6843 0.312603 4.6843 0.695882Z" fill="#02B989"/>
<path d="M12.6875 8.9187H16.3492V12.6917H12.6875V8.9187Z" fill="#02B989"/>
<path d="M8.07878 8.9187H11.7404V12.6917H8.07878V8.9187Z" fill="#02B989"/>
<path d="M12.6875 13.556H16.3492V17.329H12.6875V13.556Z" fill="#02B989"/>
<path d="M8.07878 13.556H11.7404V17.329H8.07878V13.556Z" fill="#02B989"/>
<path d="M3.30007 8.9187H6.9617V12.6917H3.30007V8.9187Z" fill="#02B989"/>
<path d="M3.30007 13.556H6.9617V17.329H3.30007V13.556Z" fill="#02B989"/>
</svg>
