<svg width="25" height="20" viewBox="0 0 25 20" fill="none" xmlns="http://www.w3.org/2000/svg">
<path d="M14.9031 10.0568C15.0986 9.48349 15.2259 8.8818 15.278 8.2616L14.0353 7.66208C14.0368 7.46152 14.0294 7.25941 14.0114 7.05607C14.0065 6.98572 13.9969 6.91691 13.9888 6.84718L15.1581 6.11127C15.0366 5.50002 14.8433 4.91592 14.5862 4.37009L13.2049 4.47006C13.0702 4.23185 12.9196 4.0029 12.756 3.78599L13.3989 2.56842C12.9927 2.10837 12.5317 1.69799 12.0276 1.34623L10.8824 2.11948C10.6479 1.98186 10.4041 1.85813 10.1513 1.74982L10.097 0.375513C9.52137 0.180197 8.91658 0.0533803 8.29475 0L7.69245 1.23916C7.49106 1.23731 7.28936 1.24533 7.08425 1.26261C7.0133 1.26878 6.94359 1.27773 6.87419 1.28606L6.13648 0.120029C5.52178 0.242217 4.93558 0.434756 4.38687 0.69055L4.48757 2.06609C4.24869 2.20063 4.01849 2.34997 3.8013 2.5135L2.57747 1.87294C2.1149 2.27807 1.70282 2.7369 1.35086 3.23954L2.12791 4.37934C1.9888 4.61323 1.86362 4.85576 1.7558 5.10692L0.375203 5.16092C0.179701 5.73422 0.0529808 6.33528 0 6.95641L1.24366 7.55593C1.24242 7.7568 1.24892 7.9586 1.26658 8.16194C1.27278 8.23229 1.28176 8.30079 1.29106 8.37083L0.120214 9.10612C0.243216 9.71737 0.43593 10.3015 0.692779 10.8473L2.07338 10.7476C2.20877 10.9858 2.35873 11.2139 2.52232 11.4314L1.87912 12.6487C2.2853 13.1103 2.74726 13.5203 3.25104 13.8712L4.39555 13.0979C4.63071 13.2371 4.87486 13.3611 5.12675 13.4685L5.18128 14.8431C5.75663 15.0372 6.35987 15.1646 6.98232 15.2171L7.58617 13.9785C7.78694 13.9798 7.99019 13.973 8.19437 13.9554C8.26439 13.9498 8.3341 13.94 8.40288 13.9313L9.14121 15.098C9.75653 14.9755 10.3421 14.7836 10.8911 14.5281L10.7914 13.1522C11.0293 13.0168 11.2589 12.8677 11.4776 12.7048L12.7005 13.3451C13.1625 12.9399 13.5742 12.4814 13.9268 11.9788L13.1513 10.8387C13.2892 10.6045 13.4134 10.3613 13.5228 10.1102L14.9031 10.0568ZM7.63946 12.0982C5.15339 12.0982 3.13145 10.0842 3.13145 7.6087C3.13145 5.13346 5.15339 3.1192 7.63946 3.1192C10.1249 3.1192 12.1472 5.13315 12.1472 7.6087C12.1472 10.0842 10.1249 12.0982 7.63946 12.0982Z" fill="#5677FF"/>
<path d="M3.45337 7.60866C3.45337 9.9071 5.33063 11.7773 7.63948 11.7773C9.94771 11.7773 11.825 9.9071 11.825 7.60866C11.825 5.31023 9.94771 3.43976 7.63948 3.43976C5.33063 3.44007 3.45337 5.31023 3.45337 7.60866ZM10.7895 7.33498C10.9407 9.06845 9.65368 10.5958 7.91398 10.7464C6.17429 10.8979 4.64002 9.61459 4.4882 7.88266C4.33762 6.14981 5.62465 4.62215 7.36435 4.47188C9.10466 4.32007 10.6389 5.60305 10.7895 7.33498Z" fill="#5677FF"/>
<path d="M15.6201 13.5999C15.5788 15.5697 17.1543 17.206 19.132 17.2471C21.1099 17.2884 22.7526 15.7191 22.7942 13.7499C22.836 11.78 21.2608 10.1438 19.2819 10.1027C17.304 10.0614 15.661 11.6301 15.6201 13.5999ZM21.0966 12.5055C21.7119 13.5416 21.3674 14.8789 20.327 15.492C19.2729 16.1125 17.9112 15.7524 17.3058 14.6866C16.7382 13.6857 17.0784 12.3675 18.0603 11.7625C19.1059 11.1179 20.4735 11.4582 21.0966 12.5055Z" fill="#5677FF"/>
<path d="M24.9723 14.2415C25.0128 13.8259 25.0091 13.4072 24.9595 12.9882L23.9836 12.7558C23.9322 12.5009 23.86 12.247 23.7686 11.9977L24.484 11.2948C24.3981 11.1056 24.3009 10.9193 24.1924 10.7372C24.0852 10.5558 23.9681 10.3824 23.8426 10.2158L22.8797 10.5024C22.7046 10.3012 22.5162 10.1167 22.3152 9.9501L22.5816 8.98617C22.2371 8.74087 21.8699 8.53568 21.4848 8.37091L20.7933 9.0991C20.5442 9.01333 20.2886 8.94791 20.0295 8.90286L19.7739 7.93276C19.3575 7.89265 18.9365 7.89697 18.5179 7.94819L18.2824 8.91983C18.0262 8.9692 17.7727 9.0411 17.523 9.13366L16.8166 8.42182C16.6282 8.50667 16.4396 8.60202 16.2571 8.71063C16.0746 8.8177 15.9001 8.93464 15.7334 9.05807L16.02 10.0186C15.819 10.1932 15.6334 10.3805 15.4661 10.5805L14.4982 10.3157C14.2515 10.6576 14.0458 11.0236 13.8807 11.4062L14.6112 12.0955C14.5251 12.3439 14.4613 12.5984 14.4157 12.8564L13.4429 13.1106C13.4017 13.5253 13.406 13.945 13.4559 14.3631L14.4334 14.5945C14.4833 14.8506 14.5549 15.1033 14.6463 15.3535L13.9315 16.0561C14.017 16.2453 14.113 16.431 14.2218 16.6118C14.3302 16.7945 14.447 16.9688 14.5716 17.1342L15.5358 16.8485C15.7102 17.0488 15.9001 17.2333 16.1 17.3996L15.8348 18.3647C16.1787 18.6094 16.5452 18.8159 16.9288 18.9782L17.6219 18.2512C17.8716 18.3376 18.125 18.4024 18.3862 18.4465L18.6409 19.4163C19.0567 19.4555 19.4787 19.453 19.8985 19.403L20.1309 18.4302C20.3877 18.3808 20.6418 18.3089 20.8918 18.2166L21.6007 18.9288C21.7891 18.8446 21.9756 18.748 22.1581 18.64C22.3412 18.5323 22.5141 18.4157 22.6814 18.291L22.3948 17.332C22.5962 17.1577 22.7814 16.9695 22.9484 16.7701L23.917 17.0346C24.1633 16.6921 24.3703 16.3261 24.5332 15.9438L23.8026 15.2536C23.8882 15.0067 23.9548 14.7528 23.9994 14.4939L24.9723 14.2415ZM19.1282 17.4017C17.0651 17.3589 15.4215 15.6519 15.4648 13.5966C15.5076 11.5419 17.2212 9.90474 19.2853 9.94794C21.3488 9.99083 22.9918 11.6978 22.9494 13.7531C22.906 15.8084 21.1923 17.4453 19.1282 17.4017Z" fill="#5677FF"/>
</svg>
