<svg width="25" height="23" viewBox="0 0 25 23" fill="none" xmlns="http://www.w3.org/2000/svg">
<g clip-path="url(#clip0_325_6265)">
<path d="M23.3328 3.10982H9.79392V1.65577C9.79392 0.741735 9.04705 0 8.12669 0H1.66723C0.746869 0 0 0.741735 0 1.65577V4.7656V9.36309V20.8442C0 21.7583 0.746869 22.5 1.66723 22.5H23.3328C24.2531 22.5 25 21.7583 25 20.8442V4.7656C25 3.84946 24.2531 3.10982 23.3328 3.10982Z" fill="#FF9058"/>
<path d="M22.2241 5.50104H2.77802V14.5531H22.2241V5.50104Z" fill="white"/>
<path d="M21.0414 7.00006H3.95862V7.55269H21.0414V7.00006Z" fill="#6F6F6F"/>
<path d="M21.0414 9.39594H3.95862V9.94856H21.0414V9.39594Z" fill="#6F6F6F"/>
<path d="M0 10.9894V20.8442C0 21.7583 0.746869 22.5 1.66723 22.5H23.3328C24.2531 22.5 25 21.7583 25 20.8442V10.9894H0Z" fill="#FF9058"/>
</g>
<defs>
<clipPath id="clip0_325_6265">
<rect width="25" height="22.5" fill="white"/>
</clipPath>
</defs>
</svg>
