<svg width="25" height="22" viewBox="0 0 25 22" fill="none" xmlns="http://www.w3.org/2000/svg">
<path d="M20.6568 21.6667C21.1017 21.6667 21.4654 21.3104 21.4654 20.8668V12.3099H23.5911H23.5946C24.3715 12.3099 25 11.6882 25 10.9198C25 10.4797 24.7952 10.0885 24.4739 9.83356L21.7267 7.47602V3.55028C21.7267 3.09274 21.3524 2.71903 20.8863 2.71903H19.149C18.6865 2.71903 18.3086 3.09274 18.3086 3.55028V4.5387L13.4217 0.340534C12.892 -0.113511 12.1081 -0.113511 11.5785 0.340534L0.483876 9.86849C0.042494 10.2492 -0.116404 10.8604 0.0883977 11.4053C0.293199 11.9466 0.819326 12.3099 1.40548 12.3099H3.53118V20.8668C3.53118 21.3104 3.89488 21.6667 4.33979 21.6667H9.12084V15.4428C9.12084 14.5626 9.84117 13.8501 10.731 13.8501H14.2691C15.1589 13.8501 15.8793 14.5626 15.8793 15.4428V21.6632H20.6568V21.6667Z" fill="#B660DD"/>
</svg>
