<svg width="21" height="25" viewBox="0 0 21 25" fill="none" xmlns="http://www.w3.org/2000/svg">
<path d="M16.9942 9.95152V10.4515H17.4942H18.0876C19.0178 10.4515 19.7818 11.2164 19.7788 12.1644V12.166V22.6682C19.7788 23.6177 19.0136 24.3827 18.0837 24.3827H2.47388C1.54402 24.3827 0.778809 23.6177 0.778809 22.6682V12.166C0.778809 11.2161 1.54398 10.4524 2.47228 10.4554H2.47388H3.06725H3.56725V9.95539V7.27166C3.56725 3.53388 6.58166 0.5 10.2807 0.5C13.9763 0.5 16.9942 3.53423 16.9942 7.26779V9.95152ZM14.3296 10.4515H14.8296V9.95152V7.26779C14.8296 4.74244 12.7948 2.68402 10.2807 2.68402C7.76315 2.68402 5.728 4.74213 5.728 7.26779V9.95152V10.4515H6.228H14.3296ZM11.6999 18.9335V17.8158L11.1999 17.5606C11.7002 17.2464 12.0415 16.6919 12.0376 16.052H12.5376C12.5376 16.0515 12.5376 16.0509 12.5376 16.0504C12.5368 14.7981 11.5302 13.7757 10.2769 13.7757C9.02301 13.7757 8.01615 14.7989 8.01615 16.052C8.01615 16.7688 8.34678 17.4012 8.85773 17.8167V18.9335C8.85773 19.4118 9.24495 19.8058 9.72616 19.8058H10.8314C11.3199 19.8058 11.6999 19.4083 11.6999 18.9335Z" stroke="#4A4A4A"/>
</svg>
