<svg width="13" height="15" viewBox="0 0 13 15" fill="none" xmlns="http://www.w3.org/2000/svg">
<path d="M11.4569 5.99906H11.0992V4.38123C11.0992 1.96618 9.147 0 6.75065 0C4.35196 0 2.40215 1.96618 2.40215 4.38357V6.0014H2.04445C1.31502 5.99906 0.721191 6.59757 0.721191 7.33401V13.6651C0.721191 14.4015 1.31502 15 2.04445 15H11.4545C12.1839 15 12.7778 14.4015 12.7778 13.6651V7.33401C12.7801 6.59757 12.1863 5.99906 11.4569 5.99906ZM7.30473 10.586V11.4137C7.30473 11.5376 7.20654 11.6381 7.08263 11.6381H6.41633C6.29476 11.6381 6.19423 11.5376 6.19423 11.4137V10.586C5.8903 10.3967 5.6869 10.0623 5.6869 9.67659C5.6869 9.0851 6.1615 8.60583 6.74831 8.60583C7.33512 8.60583 7.80972 9.0851 7.80972 9.67659C7.81206 10.0623 7.60632 10.3967 7.30473 10.586ZM9.19142 5.99906H4.30754V4.38123C4.30754 3.02291 5.40168 1.91942 6.75065 1.91942C8.09728 1.91942 9.19142 3.02291 9.19142 4.38123V5.99906Z" fill="#27C537"/>
</svg>
