<svg width="16" height="14" viewBox="0 0 16 14" fill="none" xmlns="http://www.w3.org/2000/svg">
<path d="M11.6064 13.7801L11.6064 12.4451C11.6064 12.3259 11.7079 12.2301 11.8363 12.2301L13.8464 12.2301L13.8464 1.76507L11.8363 1.76507C11.7101 1.76507 11.6064 1.66926 11.6064 1.55003L11.6064 0.215019C11.6064 0.0957842 11.7079 -2.86147e-05 11.8363 -2.86203e-05L15.4915 -2.87801e-05C15.6177 -2.87856e-05 15.7214 0.095784 15.7214 0.215019L15.7214 13.7801C15.7214 13.9015 15.6177 13.9973 15.4915 13.9973L11.8363 13.9973C11.7101 13.9973 11.6064 13.9015 11.6064 13.7801Z" fill="#C1C1C1"/>
<path d="M10.6104 9.09166L10.6104 4.90139C10.6104 4.763 10.7298 4.64802 10.8785 4.64802L12.0842 4.64802C12.2329 4.64802 12.3523 4.76087 12.3523 4.90139L12.3523 9.09166C12.3523 9.23218 12.2329 9.34503 12.0842 9.34503L10.8785 9.34503C10.7298 9.34503 10.6104 9.23218 10.6104 9.09166Z" fill="#C1C1C1"/>
<path d="M3.91049 9.85809L0.902036 7.43294C0.66091 7.23918 0.660909 6.75585 0.902036 6.5621L3.91274 4.13481L6.92344 1.70753C7.16232 1.51377 7.46429 1.7565 7.46429 2.14401L7.46429 4.6884L9.94992 4.6884C10.0761 4.6884 10.1798 4.78635 10.1798 4.90558L10.1798 9.16398C10.1798 9.28321 10.0761 9.38115 9.94992 9.38115L7.46203 9.38115L7.46203 11.851C7.46203 12.2385 7.16232 12.4791 6.92119 12.2875L3.91049 9.85809Z" fill="#C1C1C1"/>
</svg>
