<svg width="21" height="18" viewBox="0 0 21 18" fill="none" xmlns="http://www.w3.org/2000/svg">
<path d="M10.5 0C4.69988 0 0 3.15139 0 7.0352C0 9.99143 2.72045 12.5188 6.57129 13.562L5.38941 16.6014C5.21525 17.0493 5.71159 17.4611 6.1196 17.2072L11.1833 14.0559C16.6618 13.8222 21 10.7672 21 7.0352C21 3.15139 16.2976 0 10.5 0ZM11.2109 9.80351H4.05179V9.69509V9.11685V8.82773H11.2134V9.80351H11.2109ZM17.0361 6.93401V7.51225V7.61826H4.05179V7.51225V6.93401V6.64489H17.0361V6.93401ZM17.0361 4.75117V5.32941V5.43542H4.05179V5.32941V4.75117V4.45964H17.0361V4.75117Z" fill="#C4C4C4"/>
</svg>
