<svg width="20" height="20" viewBox="0 0 20 20" fill="none" xmlns="http://www.w3.org/2000/svg">
<g clip-path="url(#clip0_231_650)">
<path d="M0.930055 17.5372L0.0220967 19.606C-0.0221939 19.7114 -4.86027e-05 19.8334 0.0802282 19.9138C0.132823 19.9665 0.204796 19.9942 0.276768 19.9942C0.315522 19.9942 0.351509 19.9859 0.387495 19.972L2.45255 19.0625C2.483 19.0486 2.51345 19.0292 2.53836 19.0042L8.28507 13.2471L6.73213 11.6914L0.988187 17.454C0.963273 17.479 0.943896 17.5067 0.930055 17.5372ZM6.7349 12.5372L7.44632 13.2499L2.16189 18.5466L0.894069 19.104L1.45047 17.8339L6.7349 12.5372Z" fill="#0098ED"/>
<path d="M11.0035 2.84814L6.78479 7.07443C6.53288 6.99956 6.25607 6.96351 5.95434 6.96351C5.02977 6.96351 3.95295 7.31015 2.75157 7.9979C2.67683 8.03949 2.62423 8.11714 2.61316 8.20311C2.60209 8.28908 2.62977 8.37504 2.69344 8.43605L6.34188 12.0911L6.33911 12.0938L7.89205 13.6496L7.89482 13.6468L11.8173 17.5792C11.8699 17.6318 11.9419 17.6596 12.0139 17.6596C12.0249 17.6596 12.0388 17.6596 12.0498 17.6568C12.1357 17.6457 12.2104 17.593 12.2547 17.5181C13.6941 14.9918 13.2872 13.5997 13.0242 13.0894L17.1294 8.97682L11.0035 2.84814Z" fill="#0098ED"/>
<path d="M18.1564 9.60613C18.2643 9.68933 18.4277 9.68655 18.5246 9.58949L19.9169 8.1946C20.0249 8.08644 20.0249 7.90896 19.9169 7.80081L12.2104 0.0775701C12.1052 -0.0278098 11.9197 -0.0278098 11.8173 0.0775701L10.4249 1.47247C10.3169 1.58062 10.3169 1.7581 10.4249 1.86626L11.2028 2.64829L11.2 2.65106L18.1564 9.60613Z" fill="#0098ED"/>
</g>
<defs>
<clipPath id="clip0_231_650">
<rect width="20" height="20" fill="white"/>
</clipPath>
</defs>
</svg>
