<svg width="25" height="26" viewBox="0 0 25 26" fill="none" xmlns="http://www.w3.org/2000/svg">
<path d="M21.0477 17.0087C20.2611 17.0087 19.5257 17.2464 18.9083 17.6506L15.5577 15.2417L13.3593 13.6609C13.4261 13.2845 13.4655 12.8962 13.4655 12.5C13.4655 12.1038 13.4261 11.7195 13.3593 11.3391L15.5577 9.75832L18.9122 7.34944C19.5297 7.75357 20.2611 7.99128 21.0477 7.99128C23.2264 7.99128 24.9961 6.20048 24.9961 3.99366C25 1.79081 23.2264 0 21.0477 0C18.869 0 17.0953 1.79081 17.0953 3.99762C17.0953 4.36609 17.1504 4.72662 17.2448 5.06735L14.9048 6.75119L12.266 8.64501C11.0508 6.87797 9.02548 5.72108 6.73274 5.72108C3.01243 5.71712 0 8.75594 0 12.5C0 16.248 3.01243 19.2829 6.73274 19.2829C9.02548 19.2829 11.0508 18.126 12.266 16.359L14.9048 18.2567L17.2448 19.9366C17.1504 20.2773 17.0953 20.6339 17.0953 21.0063C17.0953 23.2092 18.869 25.004 21.0477 25.004C23.2264 25.004 24.9961 23.2132 24.9961 21.0063C25 18.8035 23.2264 17.0087 21.0477 17.0087ZM15.2312 7.25832L17.4611 5.65769C17.6892 6.15689 18.0156 6.60063 18.4128 6.96513L15.2312 9.25119L13.2177 10.6973C13.0683 10.1545 12.8559 9.63946 12.5885 9.16006L15.2312 7.25832ZM17.4611 19.3423L15.2312 17.7417L12.5885 15.8439C12.8598 15.3645 13.0683 14.8494 13.2177 14.3067L15.2312 15.7528L18.4088 18.0388C18.0116 18.4033 17.6852 18.8431 17.4611 19.3423Z" fill="#FD72AF"/>
</svg>
