<svg width="25" height="28" viewBox="0 0 25 28" fill="none" xmlns="http://www.w3.org/2000/svg">
<path d="M13.3547 11.4114H11.6422V23.7915H13.3547V11.4114Z" fill="#FF6D6D"/>
<path d="M12.4984 27.8922C14.3901 27.8922 15.9235 26.3588 15.9235 24.4671C15.9235 22.5755 14.3901 21.0421 12.4984 21.0421C10.6068 21.0421 9.07336 22.5755 9.07336 24.4671C9.07336 26.3588 10.6068 27.8922 12.4984 27.8922Z" fill="#FF6D6D"/>
<path d="M14.5442 24.4671C14.5442 25.5974 13.6287 26.5128 12.4985 26.5128C11.3682 26.5128 10.4527 25.5974 10.4527 24.4671C10.4527 23.3368 11.3682 22.4214 12.4985 22.4214C13.6287 22.4214 14.5442 23.3368 14.5442 24.4671Z" fill="white"/>
<path d="M21.5749 16.745H3.42508V18.4575H21.5749V16.745Z" fill="#FF6D6D"/>
<path d="M22.4312 16.745H20.7186V23.7913H22.4312V16.745Z" fill="#FF6D6D"/>
<path d="M21.5749 27.8922C23.4665 27.8922 25 26.3588 25 24.4671C25 22.5755 23.4665 21.0421 21.5749 21.0421C19.6833 21.0421 18.1498 22.5755 18.1498 24.4671C18.1498 26.3588 19.6833 27.8922 21.5749 27.8922Z" fill="#FF6D6D"/>
<path d="M23.6206 24.4671C23.6206 25.5974 22.7052 26.5128 21.5749 26.5128C20.4447 26.5128 19.5292 25.5974 19.5292 24.4671C19.5292 23.3368 20.4447 22.4214 21.5749 22.4214C22.7052 22.4214 23.6206 23.3368 23.6206 24.4671Z" fill="white"/>
<path d="M4.28136 16.745H2.56882V23.7913H4.28136V16.745Z" fill="#FF6D6D"/>
<path d="M3.42508 27.8922C5.31671 27.8922 6.85017 26.3588 6.85017 24.4671C6.85017 22.5755 5.31671 21.0421 3.42508 21.0421C1.53346 21.0421 0 22.5755 0 24.4671C0 26.3588 1.53346 27.8922 3.42508 27.8922Z" fill="#FF6D6D"/>
<path d="M5.4708 24.4671C5.4708 25.5974 4.55537 26.5128 3.42509 26.5128C2.29481 26.5128 1.37938 25.5974 1.37938 24.4671C1.37938 23.3368 2.29481 22.4214 3.42509 22.4214C4.55225 22.4214 5.4708 23.3368 5.4708 24.4671Z" fill="white"/>
<path d="M12.4378 15.9382C16.82 15.9003 20.3417 12.317 20.3038 7.93474C20.2658 3.5525 16.6825 0.0307837 12.3003 0.0687565C7.91803 0.106729 4.39631 3.69001 4.43428 8.07225C4.47225 12.4545 8.05554 15.9762 12.4378 15.9382Z" fill="#FF6D6D"/>
</svg>
