<svg width="21" height="25" viewBox="0 0 21 25" fill="none" xmlns="http://www.w3.org/2000/svg">
<path d="M5.72759 9.87582V10.3758H6.22759H14.33H17.4926H18.0863C19.0204 10.3758 19.7794 11.1335 19.7827 12.0693C19.7827 12.0695 19.7827 12.0697 19.7827 12.0699L19.7827 22.4874C19.7827 23.422 19.0209 24.1837 18.0863 24.1837H2.47516C1.53671 24.1837 0.778809 23.4258 0.778809 22.4874V12.0683C0.778809 11.1343 1.53614 10.3758 2.47516 10.3758H3.06499H3.56499V9.87582V7.21381C3.56499 3.51246 6.57746 0.5 10.2788 0.5C13.0673 0.5 15.4639 2.2066 16.4775 4.63294C15.7227 4.62834 15.0481 4.63837 14.3385 4.64892C14.2396 4.65039 14.1399 4.65187 14.0393 4.65332C13.2196 3.45145 11.8397 2.66259 10.2788 2.66259C7.76751 2.66259 5.72759 4.70251 5.72759 7.21381V9.87582ZM11.6985 18.7815V17.6785C12.2104 17.2682 12.5405 16.6385 12.5405 15.9255C12.5405 14.6754 11.529 13.6638 10.2788 13.6638C9.02867 13.6638 8.01707 14.6754 8.01707 15.9255C8.01707 16.6367 8.34844 17.2652 8.85914 17.6771V18.7815C8.85914 19.2668 9.25329 19.6502 9.72778 19.6502H10.8298C11.3151 19.6502 11.6985 19.256 11.6985 18.7815Z" stroke="#4A4A4A"/>
</svg>
