<svg width="25" height="16" viewBox="0 0 25 16" fill="none" xmlns="http://www.w3.org/2000/svg">
<path d="M5.4846 1.27429C3.24983 1.27429 1.42981 3.09431 1.42981 5.32908C1.42981 7.56386 3.24983 9.38387 5.4846 9.38387C6.93898 9.38387 8.21599 8.61166 8.9309 7.45744C8.37153 6.54607 7.64297 4.89795 8.49977 2.62771C7.75485 1.80092 6.67976 1.27429 5.4846 1.27429Z" fill="#4ACCF9"/>
<path d="M8.26237 8.81907C8.21326 8.85727 8.1505 8.90366 8.08501 8.95005C7.68662 10.0033 6.67156 10.7564 5.47914 10.7564C4.2758 10.7564 3.25528 9.9924 2.86508 8.92549C2.73956 8.83544 2.64133 8.75904 2.58676 8.71265C2.56765 8.69355 2.54583 8.67718 2.524 8.65808L2.48852 8.6881C-0.0354882 10.871 -1.56336e-05 14.6912 0.00271303 14.8521L0.00544169 14.9886H6.42871C6.52694 13.5069 6.96353 10.8738 8.73443 8.92549C8.60618 8.80816 8.49704 8.7263 8.42882 8.67718C8.39335 8.70993 8.35787 8.73994 8.3224 8.77269C8.29784 8.78906 8.27874 8.80543 8.26237 8.81907Z" fill="#4ACCF9"/>
<path d="M16.5902 8.54071C16.5493 8.57618 16.5084 8.61438 16.4675 8.64985C16.4484 8.66623 16.4265 8.6826 16.4074 8.7017C16.0118 9.01822 15.0977 9.61034 13.8971 9.80135C13.777 9.81772 13.6597 9.83682 13.5369 9.84501C13.4332 9.85047 13.3322 9.85592 13.2258 9.85592C12.8465 9.85592 12.4809 9.81226 12.1262 9.7304C11.0047 9.44662 10.1506 8.78356 9.90775 8.58164C9.88592 8.55981 9.85863 8.54344 9.83681 8.52161L9.79588 8.55708C6.90622 11.0511 6.94442 15.4251 6.94715 15.6079L6.94988 15.7635H19.3189L19.3134 15.5998C19.1061 10.5463 17.0869 8.87633 16.5902 8.54071ZM14.8712 11.9624L13.133 11.0756L11.3949 11.9624V9.81226L13.133 10.74L14.8712 9.81226V11.9624Z" fill="#4ACCF9"/>
<path d="M8.60345 4.64691C8.60345 7.2064 10.6882 9.29109 13.2504 9.29109H13.2531C14.4919 9.29109 15.657 8.80539 16.5357 7.92949C17.4143 7.05086 17.8973 5.88299 17.8973 4.64418C17.8945 2.0847 15.8099 0 13.2476 0C10.6854 0 8.60345 2.0847 8.60345 4.64691Z" fill="#4ACCF9"/>
<path d="M19.7828 14.7566H24.9945L24.9973 14.6338C25 14.4892 24.9481 11.2448 22.6806 9.2829L22.6506 9.25562C22.5769 9.32383 22.5005 9.38932 22.4241 9.45208L20.8115 12.5928L20.525 10.7509L20.9834 10.0087C20.6914 10.0797 20.3858 10.1179 20.072 10.1179C19.9902 10.1179 19.9083 10.1151 19.8292 10.1097C19.6818 10.1015 19.5372 10.0824 19.3926 10.0578C19.338 10.0469 19.2807 10.036 19.2261 10.0251L19.6791 10.7537L19.3789 12.5082C19.6218 13.3623 19.7337 14.189 19.7828 14.7566Z" fill="#4ACCF9"/>
<path d="M20.2303 9.61858C22.2386 9.61858 23.8758 7.98411 23.8758 5.97581C23.8758 3.96752 22.2413 2.33032 20.233 2.33032C19.4144 2.33032 18.6586 2.60046 18.0501 3.05887C18.2384 3.58005 18.342 4.14215 18.342 4.72882C18.342 5.94853 17.8918 7.06182 17.1523 7.92135C17.799 8.94187 18.9342 9.61858 20.2303 9.61858Z" fill="#4ACCF9"/>
</svg>
