<svg width="27" height="27" viewBox="0 0 27 27" fill="none" xmlns="http://www.w3.org/2000/svg">
<path d="M17.2631 15.4939C17.2174 15.5345 17.1692 15.5726 17.1209 15.6081C17.0727 15.6462 17.0219 15.6843 16.9712 15.7223C16.8671 15.7985 16.7605 15.8721 16.6513 15.9406L14.3998 20.2025L13.9506 17.7479L14.6156 16.7605C14.5344 16.7757 14.4531 16.791 14.3719 16.8062C14.1612 16.8417 13.948 16.8646 13.7297 16.8773C13.6104 16.8849 13.4911 16.89 13.3718 16.89C12.9098 16.89 12.4606 16.8367 12.029 16.7427L12.7042 17.7505L12.2829 20.2482L9.7877 15.7325C9.67347 15.6487 9.56178 15.5599 9.45264 15.4685L9.40695 15.504C6.06651 18.1642 6.1122 22.822 6.11474 23.0175V23.3932C6.11474 23.3932 7.14276 24.2004 8.6226 24.8146C10.2294 25.4797 12.3336 25.7437 13.2627 25.7437C14.1638 25.7437 16.5295 25.3756 18.1033 24.7283C19.6491 24.0937 20.4131 23.5429 20.4131 23.5429L20.4055 23.0073C20.172 17.6286 17.8367 15.8518 17.2631 15.4939Z" fill="#4A4A4A"/>
<path d="M13.3718 5.00549C10.4121 5.00549 8.0058 7.41183 8.0058 10.3715C8.0058 13.3312 10.4121 15.7375 13.3718 15.7375C16.3315 15.7375 18.7379 13.3312 18.7379 10.3715C18.7379 7.41183 16.3315 5.00549 13.3718 5.00549Z" fill="#4A4A4A"/>
<path d="M13.3718 25.7436C20.2046 25.7436 25.7436 20.2046 25.7436 13.3718C25.7436 6.53905 20.2046 1 13.3718 1C6.53905 1 1 6.53905 1 13.3718C1 20.2046 6.53905 25.7436 13.3718 25.7436Z" stroke="#4A4A4A" stroke-miterlimit="10"/>
</svg>
