<svg width="13" height="15" viewBox="0 0 13 15" fill="none" xmlns="http://www.w3.org/2000/svg">
<path d="M9.90807 8.02474C9.87041 8.06078 9.83066 8.09471 9.7909 8.12863C9.75115 8.16255 9.70931 8.19859 9.66746 8.23252C9.58168 8.30248 9.4938 8.3682 9.40384 8.43181L7.548 12.2968L7.17767 10.0707L7.72584 9.17598C7.65889 9.19082 7.59194 9.20354 7.52498 9.21626C7.35133 9.24806 7.17558 9.26926 6.99564 9.27987C6.89731 9.28623 6.79897 9.29047 6.70063 9.29047C6.31984 9.29047 5.94951 9.24382 5.59383 9.1569L6.15037 10.0707L5.80305 12.3392L3.74636 8.24312C3.65221 8.16679 3.56015 8.08623 3.47018 8.00354L3.43252 8.03746C0.681193 10.4502 0.718854 14.6714 0.720946 14.8495L0.723038 15H12.5067L12.5025 14.841C12.3058 9.96255 10.3809 8.34912 9.90807 8.02474Z" fill="#67C8FE"/>
<path d="M6.7207 0C4.51635 0 2.7207 1.79376 2.7207 4C2.7207 6.20624 4.51446 8 6.7207 8C8.92695 8 10.7207 6.20624 10.7207 4C10.7207 1.79376 8.92695 0 6.7207 0Z" fill="#67C8FE"/>
</svg>
