<svg width="1920" height="1080" viewBox="0 0 1920 1080" fill="none" xmlns="http://www.w3.org/2000/svg">
<rect width="1920" height="1080" fill="url(#paint0_linear_336_2)"/>
<g opacity="0.8">
<g opacity="0.8">
<path opacity="0.8" d="M1720.48 771.968C1766.85 754.77 1776.45 694.463 1770.36 663.776C1764.26 633.089 1745.53 606.673 1727.36 581.213C1709.21 555.752 1690.71 529.084 1685.2 498.284C1679.33 465.461 1688.88 430.84 1679.98 398.691C1666.19 348.642 1604.26 319.416 1555.78 337.963C1507.31 356.482 1480.43 416.536 1496.07 466.051C1509.19 507.473 1545.53 537.29 1564.38 576.464C1578.7 606.223 1587.86 639.299 1588.08 672.319C1588.62 753.758 1642.74 800.773 1720.48 771.968Z" fill="url(#paint1_linear_336_2)"/>
</g>
</g>
<path d="M1454.69 413.595C1512.94 425.005 1544.03 490.51 1563.97 532.832C1583.91 575.153 1599.05 619.919 1623.45 659.824C1635.53 679.58 1650.02 698.492 1655.84 720.917C1661.65 743.315 1655.86 770.995 1635.53 782.067C1620.11 790.47 1600.73 787.069 1584.84 779.594C1568.94 772.119 1555.04 760.934 1539.28 753.178C1482.38 725.189 1413.21 746.097 1351.87 730.135C1304.07 717.686 1263.01 681.631 1244.53 635.797C1226.05 589.963 1228.35 531.23 1256.74 490.791C1306.31 420.227 1392.65 401.455 1454.69 413.595Z" fill="url(#paint2_linear_336_2)"/>
<path d="M1272.38 593.802C1318.98 641.435 1440.7 611.928 1453.2 700.393C1464.46 780.146 1257.3 926.36 1102.72 784.53C908.874 606.729 1072.61 401.867 1153.64 413.613C1252.33 427.917 1210.85 530.91 1272.38 593.802Z" fill="url(#paint3_linear_336_2)"/>
<path d="M1785.47 268.172C1795.76 275.816 1793.3 299.778 1810.48 299.865C1825.97 299.942 1848.46 256.669 1817.42 230.89C1778.51 198.561 1743.71 235.081 1748.05 250.218C1753.34 268.655 1771.89 258.077 1785.47 268.172Z" fill="url(#paint4_linear_336_2)"/>
<path d="M1737.67 859.655C1752.24 866.596 1764.91 859.177 1770.27 847.908C1775.72 836.471 1771.76 807.863 1748.87 799.208C1736.23 794.43 1722.64 804.772 1719.52 813.708C1713.18 831.75 1718.65 850.606 1737.67 859.655Z" fill="#64C7FF"/>
<path d="M597.04 527.134C638.681 546.963 674.866 525.769 690.191 493.576C705.756 460.902 694.443 379.176 629.053 354.45C592.948 340.802 554.114 370.346 545.209 395.875C527.076 447.415 542.721 501.283 597.04 527.134Z" fill="url(#paint5_linear_336_2)"/>
<path d="M705.636 843.747C712.432 846.983 718.338 843.524 720.839 838.27C723.379 832.937 721.533 819.599 710.861 815.563C704.968 813.336 698.63 818.158 697.176 822.324C694.217 830.736 696.771 839.528 705.636 843.747Z" fill="#64C7FF"/>
<path d="M1890.91 499.746C1897.71 502.983 1903.62 499.524 1906.12 494.27C1908.66 488.937 1906.81 475.599 1896.14 471.563C1890.25 469.336 1883.91 474.157 1882.46 478.324C1879.5 486.736 1882.05 495.527 1890.91 499.746Z" fill="url(#paint6_linear_336_2)"/>
<defs>
<linearGradient id="paint0_linear_336_2" x1="19.5" y1="1059.5" x2="901" y2="210" gradientUnits="userSpaceOnUse">
<stop stop-color="#AAE0FF"/>
<stop offset="0.556003" stop-color="white" stop-opacity="0"/>
</linearGradient>
<linearGradient id="paint1_linear_336_2" x1="1491.62" y1="556.413" x2="1772.01" y2="556.413" gradientUnits="userSpaceOnUse">
<stop stop-color="#BFFBFF"/>
<stop offset="1" stop-color="#0085FF"/>
</linearGradient>
<linearGradient id="paint2_linear_336_2" x1="1625.95" y1="789.733" x2="1280.32" y2="456.945" gradientUnits="userSpaceOnUse">
<stop stop-color="#9DD6FF"/>
<stop offset="1" stop-color="#B27EFE"/>
</linearGradient>
<linearGradient id="paint3_linear_336_2" x1="1011.69" y1="628.565" x2="1453.63" y2="628.565" gradientUnits="userSpaceOnUse">
<stop stop-color="#99B6FF"/>
<stop offset="1" stop-color="#89F1FF"/>
</linearGradient>
<linearGradient id="paint4_linear_336_2" x1="1785.34" y1="217.59" x2="1796.8" y2="301.811" gradientUnits="userSpaceOnUse">
<stop stop-color="#99B6FF"/>
<stop offset="1" stop-color="#89F1FF"/>
</linearGradient>
<linearGradient id="paint5_linear_336_2" x1="617.202" y1="351" x2="617.202" y2="534.815" gradientUnits="userSpaceOnUse">
<stop stop-color="#64C7FF"/>
<stop offset="1" stop-color="#64C7FF" stop-opacity="0"/>
</linearGradient>
<linearGradient id="paint6_linear_336_2" x1="1894.21" y1="471" x2="1894.21" y2="501" gradientUnits="userSpaceOnUse">
<stop stop-color="#64C7FF"/>
<stop offset="1" stop-color="#64C7FF" stop-opacity="0"/>
</linearGradient>
</defs>
</svg>
