<svg viewBox="0 0 130 130" fill="none" xmlns="http://www.w3.org/2000/svg">
<path d="M64.9416 129.857C29.306 129.857 0.317505 100.895 0.317505 65.2912C0.317505 29.6875 29.306 0.725067 64.9416 0.725067C100.577 0.725067 129.566 29.6875 129.566 65.2912C129.566 100.895 100.577 129.857 64.9416 129.857ZM64.9416 3.83901C31.016 3.83901 3.40667 31.4236 3.40667 65.3187C3.40667 99.2139 31.016 126.798 64.9416 126.798C98.8672 126.798 126.477 99.2139 126.477 65.3187C126.477 31.4236 98.8672 3.83901 64.9416 3.83901Z" fill="white"/>
<path d="M100.991 87.5848H28.9198C28.0647 87.5848 27.3752 86.8959 27.3752 86.0416V48.3161C27.3752 47.4618 28.0647 46.7729 28.9198 46.7729H41.4143L43.2071 38.7262C43.3726 38.0097 43.9794 37.5137 44.7241 37.5137H85.2418C85.9589 37.5137 86.5933 38.0097 86.7588 38.7262L88.5516 46.7729H101.046C101.901 46.7729 102.591 47.4618 102.591 48.3161V86.0416C102.536 86.8959 101.846 87.5848 100.991 87.5848ZM30.4643 84.4984H99.474V49.8593H87.2828C86.5657 49.8593 85.9313 49.3632 85.7658 48.6467L83.973 40.6001H45.9377L44.1449 48.6467C43.9794 49.3632 43.3726 49.8593 42.6279 49.8593H30.4368V84.4984H30.4643Z" fill="white"/>
<path d="M64.9416 80.5026C55.7568 80.5026 48.2822 73.0347 48.2822 63.8582C48.2822 54.6817 55.7568 47.2138 64.9416 47.2138C74.1263 47.2138 81.601 54.6817 81.601 63.8582C81.601 73.0347 74.1263 80.5026 64.9416 80.5026ZM64.9416 50.3277C57.4669 50.3277 51.3713 56.4178 51.3713 63.8858C51.3713 71.3537 57.4669 77.4438 64.9416 77.4438C72.4162 77.4438 78.5118 71.3537 78.5118 63.8858C78.5118 56.3903 72.4438 50.3277 64.9416 50.3277Z" fill="white"/>
<path d="M60.5561 64.6298C62.7801 64.6298 64.5831 62.8285 64.5831 60.6065C64.5831 58.3845 62.7801 56.5832 60.5561 56.5832C58.3321 56.5832 56.5291 58.3845 56.5291 60.6065C56.5291 62.8285 58.3321 64.6298 60.5561 64.6298Z" fill="white"/>
<path d="M94.6472 56.7485H85.0211C84.1661 56.7485 83.4765 56.0596 83.4765 55.2053C83.4765 54.351 84.1661 53.6621 85.0211 53.6621H94.6472C95.5022 53.6621 96.1917 54.351 96.1917 55.2053C96.1917 56.0596 95.5022 56.7485 94.6472 56.7485Z" fill="white"/>
</svg>
