<svg width="1591" height="100" viewBox="0 0 1591 100" fill="none" xmlns="http://www.w3.org/2000/svg">
<g opacity="0.2">
<mask id="mask0_437_20" style="mask-type:alpha" maskUnits="userSpaceOnUse" x="0" y="0" width="1591" height="100">
<rect width="1590.28" height="100" fill="#C4C4C4"/>
</mask>
<g mask="url(#mask0_437_20)">
<g opacity="0.8">
<g opacity="0.8">
<path opacity="0.8" d="M1379.48 17.6212C1418.5 0.422866 1426.58 -59.8838 1421.45 -90.571C1416.33 -121.258 1400.56 -147.674 1385.27 -173.134C1370.01 -198.595 1354.43 -225.263 1349.8 -256.063C1344.86 -288.886 1352.9 -323.507 1345.41 -355.656C1333.8 -405.705 1281.7 -434.931 1240.91 -416.384C1200.12 -397.865 1177.5 -337.811 1190.67 -288.296C1201.7 -246.874 1232.28 -217.058 1248.14 -177.884C1260.19 -148.124 1267.9 -115.048 1268.08 -82.028C1268.53 -0.588801 1314.07 46.4256 1379.48 17.6212Z" fill="url(#paint0_linear_437_20)"/>
</g>
</g>
<path d="M1155.85 -340.752C1204.86 -329.342 1231.02 -263.837 1247.8 -221.515C1264.57 -179.194 1277.31 -134.428 1297.85 -94.5231C1308.01 -74.7675 1320.2 -55.8549 1325.09 -33.4296C1329.99 -11.0324 1325.12 16.6479 1308.01 27.7201C1295.04 36.1225 1278.73 32.7222 1265.35 25.2471C1251.98 17.772 1240.28 6.58745 1227.02 -1.16867C1179.15 -29.1581 1120.94 -8.25035 1069.33 -24.2122C1029.11 -36.6613 994.56 -72.7161 979.011 -118.55C963.461 -164.384 965.399 -223.117 989.291 -263.556C1031 -334.12 1103.64 -352.892 1155.85 -340.752Z" fill="url(#paint1_linear_437_20)"/>
<path d="M1002.45 -160.545C1041.66 -112.912 1144.07 -142.419 1154.59 -53.9544C1164.07 25.7987 989.76 172.013 859.692 30.1827C696.587 -147.618 834.359 -352.481 902.536 -340.734C985.578 -326.43 950.674 -223.437 1002.45 -160.545Z" fill="url(#paint2_linear_437_20)"/>
<path d="M1393.95 105.308C1406.21 112.249 1416.87 104.83 1421.38 93.561C1425.97 82.1235 1422.64 53.5158 1403.38 44.8604C1392.74 40.0831 1381.31 50.4246 1378.68 59.361C1373.34 77.4024 1377.95 96.2588 1393.95 105.308Z" fill="#64C7FF"/>
<path d="M525.579 89.3994C531.298 92.6357 536.267 89.1767 538.371 83.9226C540.509 78.5899 538.955 65.2517 529.976 61.2161C525.017 58.9887 519.685 63.8104 518.462 67.977C515.971 76.3887 518.12 85.1805 525.579 89.3994Z" fill="#64C7FF"/>
</g>
</g>
<defs>
<linearGradient id="paint0_linear_437_20" x1="1186.92" y1="-197.934" x2="1422.85" y2="-197.934" gradientUnits="userSpaceOnUse">
<stop stop-color="#BFFBFF"/>
<stop offset="1" stop-color="#0085FF"/>
</linearGradient>
<linearGradient id="paint1_linear_437_20" x1="1299.95" y1="35.3857" x2="961.596" y2="-238.731" gradientUnits="userSpaceOnUse">
<stop stop-color="#9DD6FF"/>
<stop offset="1" stop-color="#B27EFE"/>
</linearGradient>
<linearGradient id="paint2_linear_437_20" x1="783.102" y1="-125.782" x2="1154.95" y2="-125.782" gradientUnits="userSpaceOnUse">
<stop stop-color="#99B6FF"/>
<stop offset="1" stop-color="#89F1FF"/>
</linearGradient>
</defs>
</svg>
