<svg width="1920" height="1080" viewBox="0 0 1920 1080" fill="none" xmlns="http://www.w3.org/2000/svg">
<rect width="1920" height="1080" fill="white"/>
<g opacity="0.8">
<g opacity="0.8">
<path opacity="0.8" d="M1445.2 784.968C1491.57 767.77 1501.17 707.463 1495.08 676.776C1488.98 646.089 1470.25 619.673 1452.08 594.213C1433.93 568.752 1415.43 542.084 1409.92 511.284C1404.05 478.461 1413.6 443.84 1404.7 411.691C1390.91 361.642 1328.98 332.416 1280.5 350.963C1232.03 369.482 1205.15 429.536 1220.79 479.051C1233.91 520.473 1270.25 550.29 1289.1 589.464C1303.42 619.223 1312.58 652.299 1312.8 685.319C1313.34 766.758 1367.46 813.773 1445.2 784.968Z" fill="url(#paint0_linear_71_2)"/>
</g>
</g>
<path d="M1179.41 426.595C1237.66 438.005 1268.75 503.51 1288.69 545.832C1308.63 588.153 1323.77 632.919 1348.18 672.824C1360.25 692.58 1374.74 711.492 1380.56 733.917C1386.37 756.315 1380.59 783.995 1360.25 795.067C1344.83 803.47 1325.45 800.069 1309.56 792.594C1293.66 785.119 1279.76 773.934 1264 766.178C1207.1 738.189 1137.93 759.097 1076.59 743.135C1028.79 730.686 987.727 694.631 969.247 648.797C950.767 602.963 953.07 544.23 981.464 503.791C1031.03 433.227 1117.37 414.455 1179.41 426.595Z" fill="url(#paint1_linear_71_2)"/>
<path d="M997.104 606.802C1043.7 654.435 1165.42 624.928 1177.92 713.393C1189.18 793.146 982.022 939.36 827.44 797.53C633.595 619.729 797.333 414.867 878.359 426.613C977.051 440.917 935.569 543.91 997.104 606.802Z" fill="url(#paint2_linear_71_2)"/>
<path d="M1510.2 281.172C1520.48 288.816 1518.02 312.778 1535.2 312.865C1550.69 312.942 1573.18 269.669 1542.14 243.89C1503.23 211.561 1468.43 248.081 1472.78 263.218C1478.06 281.655 1496.61 271.077 1510.2 281.172Z" fill="url(#paint3_linear_71_2)"/>
<path d="M1462.39 872.655C1476.96 879.596 1489.63 872.177 1494.99 860.908C1500.44 849.471 1496.48 820.863 1473.59 812.208C1460.96 807.43 1447.36 817.772 1444.24 826.708C1437.9 844.75 1443.37 863.606 1462.39 872.655Z" fill="#64C7FF"/>
<path d="M321.761 540.134C363.402 559.963 399.587 538.769 414.912 506.576C430.477 473.902 419.164 392.176 353.774 367.45C317.669 353.802 278.836 383.346 269.93 408.875C251.797 460.415 267.442 514.283 321.761 540.134Z" fill="url(#paint4_linear_71_2)"/>
<path d="M430.357 856.747C437.153 859.983 443.059 856.524 445.56 851.27C448.1 845.937 446.254 832.599 435.582 828.563C429.689 826.336 423.351 831.158 421.898 835.324C418.938 843.736 421.492 852.528 430.357 856.747Z" fill="#64C7FF"/>
<path d="M1615.64 512.746C1622.43 515.983 1628.34 512.524 1630.84 507.27C1633.38 501.937 1631.53 488.599 1620.86 484.563C1614.97 482.336 1608.63 487.157 1607.18 491.324C1604.22 499.736 1606.77 508.527 1615.64 512.746Z" fill="url(#paint5_linear_71_2)"/>
<path d="M499.621 556L480.321 482H492.221L506.721 539.6L522.021 482H533.721L549.021 539.5L563.421 482H575.321L556.021 556H542.021L527.821 502.4L513.621 556H499.621ZM605.487 557C601.02 557 597.153 556.233 593.887 554.7C590.687 553.1 588.02 551 585.887 548.4C583.82 545.733 582.253 542.767 581.187 539.5C580.187 536.233 579.687 532.9 579.687 529.5C579.687 526.167 580.187 522.867 581.187 519.6C582.187 516.333 583.72 513.367 585.787 510.7C587.853 508.033 590.487 505.933 593.687 504.4C596.887 502.8 600.653 502 604.987 502C609.653 502 613.753 503.067 617.287 505.2C620.887 507.267 623.687 510.367 625.687 514.5C627.753 518.567 628.787 523.633 628.787 529.7V532.8H591.187C591.453 536.867 592.82 540.367 595.287 543.3C597.753 546.233 601.153 547.7 605.487 547.7C607.953 547.7 609.987 547.3 611.587 546.5C613.187 545.633 614.42 544.667 615.287 543.6C616.153 542.533 616.753 541.6 617.087 540.8C617.487 540 617.687 539.6 617.687 539.6H628.287C628.287 539.6 628.12 540.2 627.787 541.4C627.453 542.533 626.82 543.967 625.887 545.7C625.02 547.433 623.753 549.167 622.087 550.9C620.42 552.633 618.22 554.1 615.487 555.3C612.753 556.433 609.42 557 605.487 557ZM591.287 524.8H617.787C617.52 520.133 616.12 516.7 613.587 514.5C611.12 512.3 608.22 511.2 604.887 511.2C601.153 511.2 598.053 512.433 595.587 514.9C593.12 517.3 591.687 520.6 591.287 524.8ZM687.08 502C690.414 502 693.18 502.533 695.38 503.6C697.647 504.667 699.447 505.9 700.78 507.3C702.114 508.7 703.08 509.9 703.68 510.9H704.28V503H715.68V556H704.28V548.1H703.68C703.08 549.1 702.114 550.3 700.78 551.7C699.447 553.1 697.647 554.333 695.38 555.4C693.18 556.467 690.414 557 687.08 557C683.08 557 679.58 556.233 676.58 554.7C673.647 553.1 671.18 551 669.18 548.4C667.18 545.733 665.68 542.767 664.68 539.5C663.747 536.233 663.28 532.9 663.28 529.5C663.28 526.1 663.747 522.767 664.68 519.5C665.68 516.233 667.18 513.3 669.18 510.7C671.18 508.033 673.647 505.933 676.58 504.4C679.58 502.8 683.08 502 687.08 502ZM689.58 511.5C686.314 511.5 683.58 512.4 681.38 514.2C679.18 515.933 677.514 518.167 676.38 520.9C675.314 523.633 674.78 526.5 674.78 529.5C674.78 532.5 675.314 535.367 676.38 538.1C677.514 540.833 679.18 543.1 681.38 544.9C683.58 546.633 686.314 547.5 689.58 547.5C692.847 547.5 695.547 546.633 697.68 544.9C699.88 543.1 701.514 540.833 702.58 538.1C703.714 535.367 704.28 532.5 704.28 529.5C704.28 526.5 703.714 523.633 702.58 520.9C701.514 518.167 699.88 515.933 697.68 514.2C695.547 512.4 692.847 511.5 689.58 511.5ZM730.024 556L730.124 480H741.424V556H730.024ZM768.987 556L752.087 503H763.587L775.187 541.3L787.387 503H797.987L810.187 541.3L821.787 503H833.387L816.387 556H804.287L792.687 519.6L781.187 556H768.987ZM863.741 502C867.074 502 869.841 502.533 872.041 503.6C874.307 504.667 876.107 505.9 877.441 507.3C878.774 508.7 879.741 509.9 880.341 510.9H880.941V503H892.341V556H880.941V548.1H880.341C879.741 549.1 878.774 550.3 877.441 551.7C876.107 553.1 874.307 554.333 872.041 555.4C869.841 556.467 867.074 557 863.741 557C859.741 557 856.241 556.233 853.241 554.7C850.307 553.1 847.841 551 845.841 548.4C843.841 545.733 842.341 542.767 841.341 539.5C840.407 536.233 839.941 532.9 839.941 529.5C839.941 526.1 840.407 522.767 841.341 519.5C842.341 516.233 843.841 513.3 845.841 510.7C847.841 508.033 850.307 505.933 853.241 504.4C856.241 502.8 859.741 502 863.741 502ZM866.241 511.5C862.974 511.5 860.241 512.4 858.041 514.2C855.841 515.933 854.174 518.167 853.041 520.9C851.974 523.633 851.441 526.5 851.441 529.5C851.441 532.5 851.974 535.367 853.041 538.1C854.174 540.833 855.841 543.1 858.041 544.9C860.241 546.633 862.974 547.5 866.241 547.5C869.507 547.5 872.207 546.633 874.341 544.9C876.541 543.1 878.174 540.833 879.241 538.1C880.374 535.367 880.941 532.5 880.941 529.5C880.941 526.5 880.374 523.633 879.241 520.9C878.174 518.167 876.541 515.933 874.341 514.2C872.207 512.4 869.507 511.5 866.241 511.5ZM907.02 575.5C905.353 575.5 903.986 575.433 902.92 575.3C901.853 575.167 901.32 575.1 901.32 575.1V565.6C901.32 565.6 901.853 565.633 902.92 565.7C903.986 565.833 905.153 565.9 906.42 565.9C910.086 565.9 913.086 565.2 915.42 563.8C917.82 562.467 919.853 560.1 921.52 556.7L901.32 503H912.92L927.22 542.7L941.52 503H953.32L933.32 555.4C930.653 562.267 927.253 567.333 923.12 570.6C918.986 573.867 913.62 575.5 907.02 575.5ZM496.721 683L479.821 630H491.321L502.921 668.3L515.121 630H525.721L537.921 668.3L549.521 630H561.121L544.121 683H532.021L520.421 646.6L508.921 683H496.721ZM594.375 684C588.575 684 583.675 682.7 579.675 680.1C575.742 677.5 572.742 674.1 570.675 669.9C568.675 665.7 567.675 661.233 567.675 656.5C567.675 651.767 568.675 647.3 570.675 643.1C572.742 638.9 575.742 635.5 579.675 632.9C583.675 630.3 588.575 629 594.375 629C600.108 629 604.942 630.3 608.875 632.9C612.875 635.5 615.875 638.9 617.875 643.1C619.942 647.3 620.975 651.767 620.975 656.5C620.975 661.233 619.942 665.7 617.875 669.9C615.875 674.1 612.875 677.5 608.875 680.1C604.942 682.7 600.108 684 594.375 684ZM594.375 674.3C597.642 674.3 600.375 673.467 602.575 671.8C604.842 670.133 606.542 667.933 607.675 665.2C608.875 662.467 609.475 659.567 609.475 656.5C609.475 653.367 608.875 650.467 607.675 647.8C606.542 645.067 604.842 642.867 602.575 641.2C600.375 639.533 597.642 638.7 594.375 638.7C591.108 638.7 588.342 639.533 586.075 641.2C583.808 642.867 582.108 645.067 580.975 647.8C579.842 650.467 579.275 653.367 579.275 656.5C579.275 659.567 579.842 662.467 580.975 665.2C582.108 667.933 583.808 670.133 586.075 671.8C588.342 673.467 591.108 674.3 594.375 674.3ZM633.321 683V630H644.721V637H645.121C646.121 634.933 647.688 633.1 649.821 631.5C652.021 629.833 655.188 629 659.321 629C660.588 629 661.654 629.067 662.521 629.2C663.454 629.333 663.921 629.4 663.921 629.4V640.4C663.921 640.4 663.421 640.333 662.421 640.2C661.421 640.067 660.288 640 659.021 640C654.354 640 650.788 641.333 648.321 644C645.921 646.6 644.721 650.833 644.721 656.7V683H633.321ZM674.751 683V607H686.151V651.1L706.051 630H720.051L696.951 654.2L720.751 683H706.651L686.151 658V683H674.751ZM737.882 620.9C735.815 620.9 734.115 620.2 732.782 618.8C731.449 617.4 730.782 615.767 730.782 613.9C730.782 611.967 731.449 610.333 732.782 609C734.115 607.6 735.815 606.9 737.882 606.9C739.949 606.9 741.649 607.6 742.982 609C744.382 610.333 745.082 611.967 745.082 613.9C745.082 615.833 744.382 617.5 742.982 618.9C741.649 620.233 739.949 620.9 737.882 620.9ZM732.282 683V630H743.682V683H732.282ZM758.321 683V630H769.721V637.7H770.321C770.788 636.767 771.588 635.633 772.721 634.3C773.854 632.9 775.421 631.667 777.421 630.6C779.488 629.533 782.088 629 785.221 629C789.154 629 792.454 629.9 795.121 631.7C797.788 633.5 799.788 635.9 801.121 638.9C802.521 641.9 803.221 645.2 803.221 648.8V683H791.821V650C791.821 646.8 790.921 644.1 789.121 641.9C787.388 639.7 784.788 638.6 781.321 638.6C778.588 638.6 776.354 639.3 774.621 640.7C772.954 642.033 771.721 643.8 770.921 646C770.121 648.133 769.721 650.433 769.721 652.9V683H758.321ZM842.331 704.1C837.731 704.1 833.931 703.5 830.931 702.3C827.931 701.1 825.531 699.6 823.731 697.8C821.931 696.067 820.598 694.3 819.731 692.5C818.865 690.767 818.298 689.3 818.031 688.1C817.765 686.9 817.631 686.3 817.631 686.3H828.931C828.931 686.3 829.065 686.7 829.331 687.5C829.598 688.367 830.165 689.333 831.031 690.4C831.965 691.533 833.331 692.5 835.131 693.3C836.931 694.167 839.298 694.6 842.231 694.6C845.698 694.6 848.465 693.9 850.531 692.5C852.665 691.167 854.165 689.367 855.031 687.1C855.965 684.9 856.431 682.5 856.431 679.9V673.9H855.931C855.198 675.033 854.131 676.3 852.731 677.7C851.398 679.033 849.598 680.2 847.331 681.2C845.065 682.2 842.331 682.7 839.131 682.7C835.131 682.7 831.631 681.933 828.631 680.4C825.698 678.867 823.231 676.833 821.231 674.3C819.298 671.7 817.831 668.8 816.831 665.6C815.831 662.4 815.331 659.133 815.331 655.8C815.331 652.467 815.831 649.233 816.831 646.1C817.831 642.9 819.298 640.033 821.231 637.5C823.231 634.9 825.698 632.833 828.631 631.3C831.631 629.767 835.131 629 839.131 629C842.331 629 845.065 629.5 847.331 630.5C849.598 631.433 851.431 632.6 852.831 634C854.231 635.333 855.265 636.6 855.931 637.8H856.431V630H867.831V679.8C867.831 684.533 866.865 688.733 864.931 692.4C862.998 696.067 860.131 698.933 856.331 701C852.531 703.067 847.865 704.1 842.331 704.1ZM841.731 673.3C844.998 673.3 847.731 672.467 849.931 670.8C852.131 669.067 853.765 666.867 854.831 664.2C855.898 661.533 856.431 658.733 856.431 655.8C856.431 652.867 855.898 650.067 854.831 647.4C853.765 644.733 852.131 642.567 849.931 640.9C847.731 639.233 844.998 638.4 841.731 638.4C838.398 638.4 835.631 639.233 833.431 640.9C831.231 642.567 829.598 644.733 828.531 647.4C827.465 650.067 826.931 652.867 826.931 655.8C826.931 658.733 827.465 661.533 828.531 664.2C829.598 666.867 831.231 669.067 833.431 670.8C835.631 672.467 838.398 673.3 841.731 673.3ZM506.221 756C509.554 756 512.321 756.533 514.521 757.6C516.788 758.667 518.588 759.9 519.921 761.3C521.254 762.7 522.221 763.9 522.821 764.9H523.421V757H534.821V810H523.421V802.1H522.821C522.221 803.1 521.254 804.3 519.921 805.7C518.588 807.1 516.788 808.333 514.521 809.4C512.321 810.467 509.554 811 506.221 811C502.221 811 498.721 810.233 495.721 808.7C492.788 807.1 490.321 805 488.321 802.4C486.321 799.733 484.821 796.767 483.821 793.5C482.888 790.233 482.421 786.9 482.421 783.5C482.421 780.1 482.888 776.767 483.821 773.5C484.821 770.233 486.321 767.3 488.321 764.7C490.321 762.033 492.788 759.933 495.721 758.4C498.721 756.8 502.221 756 506.221 756ZM508.721 765.5C505.454 765.5 502.721 766.4 500.521 768.2C498.321 769.933 496.654 772.167 495.521 774.9C494.454 777.633 493.921 780.5 493.921 783.5C493.921 786.5 494.454 789.367 495.521 792.1C496.654 794.833 498.321 797.1 500.521 798.9C502.721 800.633 505.454 801.5 508.721 801.5C511.988 801.5 514.688 800.633 516.821 798.9C519.021 797.1 520.654 794.833 521.721 792.1C522.854 789.367 523.421 786.5 523.421 783.5C523.421 780.5 522.854 777.633 521.721 774.9C520.654 772.167 519.021 769.933 516.821 768.2C514.688 766.4 511.988 765.5 508.721 765.5ZM548.165 810V757H559.565V764.7H560.165C560.631 763.767 561.431 762.633 562.565 761.3C563.698 759.9 565.265 758.667 567.265 757.6C569.331 756.533 571.931 756 575.065 756C578.998 756 582.298 756.9 584.965 758.7C587.631 760.5 589.631 762.9 590.965 765.9C592.365 768.9 593.065 772.2 593.065 775.8V810H581.665V777C581.665 773.8 580.765 771.1 578.965 768.9C577.231 766.7 574.631 765.6 571.165 765.6C568.431 765.6 566.198 766.3 564.465 767.7C562.798 769.033 561.565 770.8 560.765 773C559.965 775.133 559.565 777.433 559.565 779.9V810H548.165ZM606.336 829.5C604.669 829.5 603.303 829.433 602.236 829.3C601.169 829.167 600.636 829.1 600.636 829.1V819.6C600.636 819.6 601.169 819.633 602.236 819.7C603.303 819.833 604.469 819.9 605.736 819.9C609.403 819.9 612.403 819.2 614.736 817.8C617.136 816.467 619.169 814.1 620.836 810.7L600.636 757H612.236L626.536 796.7L640.836 757H652.636L632.636 809.4C629.969 816.267 626.569 821.333 622.436 824.6C618.303 827.867 612.936 829.5 606.336 829.5ZM675.92 810L659.02 757H670.52L682.12 795.3L694.32 757H704.92L717.12 795.3L728.72 757H740.32L723.32 810H711.22L699.62 773.6L688.12 810H675.92ZM751.02 810V734H762.42V764.7H763.02C763.487 763.767 764.287 762.633 765.42 761.3C766.554 759.9 768.12 758.667 770.12 757.6C772.187 756.533 774.787 756 777.92 756C781.854 756 785.154 756.9 787.82 758.7C790.487 760.5 792.487 762.9 793.82 765.9C795.22 768.9 795.92 772.2 795.92 775.8V810H784.52V777C784.52 773.8 783.62 771.1 781.82 768.9C780.087 766.7 777.487 765.6 774.02 765.6C771.287 765.6 769.054 766.3 767.32 767.7C765.654 769.033 764.42 770.8 763.62 773C762.82 775.133 762.42 777.433 762.42 779.9V810H751.02ZM833.807 811C829.34 811 825.474 810.233 822.207 808.7C819.007 807.1 816.34 805 814.207 802.4C812.14 799.733 810.574 796.767 809.507 793.5C808.507 790.233 808.007 786.9 808.007 783.5C808.007 780.167 808.507 776.867 809.507 773.6C810.507 770.333 812.04 767.367 814.107 764.7C816.174 762.033 818.807 759.933 822.007 758.4C825.207 756.8 828.974 756 833.307 756C837.974 756 842.074 757.067 845.607 759.2C849.207 761.267 852.007 764.367 854.007 768.5C856.074 772.567 857.107 777.633 857.107 783.7V786.8H819.507C819.774 790.867 821.14 794.367 823.607 797.3C826.074 800.233 829.474 801.7 833.807 801.7C836.274 801.7 838.307 801.3 839.907 800.5C841.507 799.633 842.74 798.667 843.607 797.6C844.474 796.533 845.074 795.6 845.407 794.8C845.807 794 846.007 793.6 846.007 793.6H856.607C856.607 793.6 856.44 794.2 856.107 795.4C855.774 796.533 855.14 797.967 854.207 799.7C853.34 801.433 852.074 803.167 850.407 804.9C848.74 806.633 846.54 808.1 843.807 809.3C841.074 810.433 837.74 811 833.807 811ZM819.607 778.8H846.107C845.84 774.133 844.44 770.7 841.907 768.5C839.44 766.3 836.54 765.2 833.207 765.2C829.474 765.2 826.374 766.433 823.907 768.9C821.44 771.3 820.007 774.6 819.607 778.8ZM869.454 810V757H880.854V764H881.254C882.254 761.933 883.821 760.1 885.954 758.5C888.154 756.833 891.321 756 895.454 756C896.721 756 897.787 756.067 898.654 756.2C899.587 756.333 900.054 756.4 900.054 756.4V767.4C900.054 767.4 899.554 767.333 898.554 767.2C897.554 767.067 896.421 767 895.154 767C890.487 767 886.921 768.333 884.454 771C882.054 773.6 880.854 777.833 880.854 783.7V810H869.454ZM931.366 811C926.899 811 923.032 810.233 919.766 808.7C916.566 807.1 913.899 805 911.766 802.4C909.699 799.733 908.132 796.767 907.066 793.5C906.066 790.233 905.566 786.9 905.566 783.5C905.566 780.167 906.066 776.867 907.066 773.6C908.066 770.333 909.599 767.367 911.666 764.7C913.732 762.033 916.366 759.933 919.566 758.4C922.766 756.8 926.532 756 930.866 756C935.532 756 939.632 757.067 943.166 759.2C946.766 761.267 949.566 764.367 951.566 768.5C953.632 772.567 954.666 777.633 954.666 783.7V786.8H917.066C917.332 790.867 918.699 794.367 921.166 797.3C923.632 800.233 927.032 801.7 931.366 801.7C933.832 801.7 935.866 801.3 937.466 800.5C939.066 799.633 940.299 798.667 941.166 797.6C942.032 796.533 942.632 795.6 942.966 794.8C943.366 794 943.566 793.6 943.566 793.6H954.166C954.166 793.6 953.999 794.2 953.666 795.4C953.332 796.533 952.699 797.967 951.766 799.7C950.899 801.433 949.632 803.167 947.966 804.9C946.299 806.633 944.099 808.1 941.366 809.3C938.632 810.433 935.299 811 931.366 811ZM917.166 778.8H943.666C943.399 774.133 941.999 770.7 939.466 768.5C936.999 766.3 934.099 765.2 930.766 765.2C927.032 765.2 923.932 766.433 921.466 768.9C918.999 771.3 917.566 774.6 917.166 778.8Z" fill="#0562B7"/>
<mask id="mask0_71_2" style="mask-type:alpha" maskUnits="userSpaceOnUse" x="736" y="426" width="443" height="431">
<path d="M997.104 606.802C1043.7 654.435 1165.42 624.928 1177.92 713.393C1189.18 793.146 982.022 939.36 827.44 797.53C633.595 619.729 797.333 414.867 878.359 426.613C977.051 440.917 935.569 543.91 997.104 606.802Z" fill="url(#paint6_linear_71_2)"/>
</mask>
<g mask="url(#mask0_71_2)">
<path d="M499.621 556L480.321 482H492.221L506.721 539.6L522.021 482H533.721L549.021 539.5L563.421 482H575.321L556.021 556H542.021L527.821 502.4L513.621 556H499.621ZM605.487 557C601.02 557 597.153 556.233 593.887 554.7C590.687 553.1 588.02 551 585.887 548.4C583.82 545.733 582.253 542.767 581.187 539.5C580.187 536.233 579.687 532.9 579.687 529.5C579.687 526.167 580.187 522.867 581.187 519.6C582.187 516.333 583.72 513.367 585.787 510.7C587.853 508.033 590.487 505.933 593.687 504.4C596.887 502.8 600.653 502 604.987 502C609.653 502 613.753 503.067 617.287 505.2C620.887 507.267 623.687 510.367 625.687 514.5C627.753 518.567 628.787 523.633 628.787 529.7V532.8H591.187C591.453 536.867 592.82 540.367 595.287 543.3C597.753 546.233 601.153 547.7 605.487 547.7C607.953 547.7 609.987 547.3 611.587 546.5C613.187 545.633 614.42 544.667 615.287 543.6C616.153 542.533 616.753 541.6 617.087 540.8C617.487 540 617.687 539.6 617.687 539.6H628.287C628.287 539.6 628.12 540.2 627.787 541.4C627.453 542.533 626.82 543.967 625.887 545.7C625.02 547.433 623.753 549.167 622.087 550.9C620.42 552.633 618.22 554.1 615.487 555.3C612.753 556.433 609.42 557 605.487 557ZM591.287 524.8H617.787C617.52 520.133 616.12 516.7 613.587 514.5C611.12 512.3 608.22 511.2 604.887 511.2C601.153 511.2 598.053 512.433 595.587 514.9C593.12 517.3 591.687 520.6 591.287 524.8ZM687.08 502C690.414 502 693.18 502.533 695.38 503.6C697.647 504.667 699.447 505.9 700.78 507.3C702.114 508.7 703.08 509.9 703.68 510.9H704.28V503H715.68V556H704.28V548.1H703.68C703.08 549.1 702.114 550.3 700.78 551.7C699.447 553.1 697.647 554.333 695.38 555.4C693.18 556.467 690.414 557 687.08 557C683.08 557 679.58 556.233 676.58 554.7C673.647 553.1 671.18 551 669.18 548.4C667.18 545.733 665.68 542.767 664.68 539.5C663.747 536.233 663.28 532.9 663.28 529.5C663.28 526.1 663.747 522.767 664.68 519.5C665.68 516.233 667.18 513.3 669.18 510.7C671.18 508.033 673.647 505.933 676.58 504.4C679.58 502.8 683.08 502 687.08 502ZM689.58 511.5C686.314 511.5 683.58 512.4 681.38 514.2C679.18 515.933 677.514 518.167 676.38 520.9C675.314 523.633 674.78 526.5 674.78 529.5C674.78 532.5 675.314 535.367 676.38 538.1C677.514 540.833 679.18 543.1 681.38 544.9C683.58 546.633 686.314 547.5 689.58 547.5C692.847 547.5 695.547 546.633 697.68 544.9C699.88 543.1 701.514 540.833 702.58 538.1C703.714 535.367 704.28 532.5 704.28 529.5C704.28 526.5 703.714 523.633 702.58 520.9C701.514 518.167 699.88 515.933 697.68 514.2C695.547 512.4 692.847 511.5 689.58 511.5ZM730.024 556L730.124 480H741.424V556H730.024ZM768.987 556L752.087 503H763.587L775.187 541.3L787.387 503H797.987L810.187 541.3L821.787 503H833.387L816.387 556H804.287L792.687 519.6L781.187 556H768.987ZM863.741 502C867.074 502 869.841 502.533 872.041 503.6C874.307 504.667 876.107 505.9 877.441 507.3C878.774 508.7 879.741 509.9 880.341 510.9H880.941V503H892.341V556H880.941V548.1H880.341C879.741 549.1 878.774 550.3 877.441 551.7C876.107 553.1 874.307 554.333 872.041 555.4C869.841 556.467 867.074 557 863.741 557C859.741 557 856.241 556.233 853.241 554.7C850.307 553.1 847.841 551 845.841 548.4C843.841 545.733 842.341 542.767 841.341 539.5C840.407 536.233 839.941 532.9 839.941 529.5C839.941 526.1 840.407 522.767 841.341 519.5C842.341 516.233 843.841 513.3 845.841 510.7C847.841 508.033 850.307 505.933 853.241 504.4C856.241 502.8 859.741 502 863.741 502ZM866.241 511.5C862.974 511.5 860.241 512.4 858.041 514.2C855.841 515.933 854.174 518.167 853.041 520.9C851.974 523.633 851.441 526.5 851.441 529.5C851.441 532.5 851.974 535.367 853.041 538.1C854.174 540.833 855.841 543.1 858.041 544.9C860.241 546.633 862.974 547.5 866.241 547.5C869.507 547.5 872.207 546.633 874.341 544.9C876.541 543.1 878.174 540.833 879.241 538.1C880.374 535.367 880.941 532.5 880.941 529.5C880.941 526.5 880.374 523.633 879.241 520.9C878.174 518.167 876.541 515.933 874.341 514.2C872.207 512.4 869.507 511.5 866.241 511.5ZM907.02 575.5C905.353 575.5 903.986 575.433 902.92 575.3C901.853 575.167 901.32 575.1 901.32 575.1V565.6C901.32 565.6 901.853 565.633 902.92 565.7C903.986 565.833 905.153 565.9 906.42 565.9C910.086 565.9 913.086 565.2 915.42 563.8C917.82 562.467 919.853 560.1 921.52 556.7L901.32 503H912.92L927.22 542.7L941.52 503H953.32L933.32 555.4C930.653 562.267 927.253 567.333 923.12 570.6C918.986 573.867 913.62 575.5 907.02 575.5ZM496.721 683L479.821 630H491.321L502.921 668.3L515.121 630H525.721L537.921 668.3L549.521 630H561.121L544.121 683H532.021L520.421 646.6L508.921 683H496.721ZM594.375 684C588.575 684 583.675 682.7 579.675 680.1C575.742 677.5 572.742 674.1 570.675 669.9C568.675 665.7 567.675 661.233 567.675 656.5C567.675 651.767 568.675 647.3 570.675 643.1C572.742 638.9 575.742 635.5 579.675 632.9C583.675 630.3 588.575 629 594.375 629C600.108 629 604.942 630.3 608.875 632.9C612.875 635.5 615.875 638.9 617.875 643.1C619.942 647.3 620.975 651.767 620.975 656.5C620.975 661.233 619.942 665.7 617.875 669.9C615.875 674.1 612.875 677.5 608.875 680.1C604.942 682.7 600.108 684 594.375 684ZM594.375 674.3C597.642 674.3 600.375 673.467 602.575 671.8C604.842 670.133 606.542 667.933 607.675 665.2C608.875 662.467 609.475 659.567 609.475 656.5C609.475 653.367 608.875 650.467 607.675 647.8C606.542 645.067 604.842 642.867 602.575 641.2C600.375 639.533 597.642 638.7 594.375 638.7C591.108 638.7 588.342 639.533 586.075 641.2C583.808 642.867 582.108 645.067 580.975 647.8C579.842 650.467 579.275 653.367 579.275 656.5C579.275 659.567 579.842 662.467 580.975 665.2C582.108 667.933 583.808 670.133 586.075 671.8C588.342 673.467 591.108 674.3 594.375 674.3ZM633.321 683V630H644.721V637H645.121C646.121 634.933 647.688 633.1 649.821 631.5C652.021 629.833 655.188 629 659.321 629C660.588 629 661.654 629.067 662.521 629.2C663.454 629.333 663.921 629.4 663.921 629.4V640.4C663.921 640.4 663.421 640.333 662.421 640.2C661.421 640.067 660.288 640 659.021 640C654.354 640 650.788 641.333 648.321 644C645.921 646.6 644.721 650.833 644.721 656.7V683H633.321ZM674.751 683V607H686.151V651.1L706.051 630H720.051L696.951 654.2L720.751 683H706.651L686.151 658V683H674.751ZM737.882 620.9C735.815 620.9 734.115 620.2 732.782 618.8C731.449 617.4 730.782 615.767 730.782 613.9C730.782 611.967 731.449 610.333 732.782 609C734.115 607.6 735.815 606.9 737.882 606.9C739.949 606.9 741.649 607.6 742.982 609C744.382 610.333 745.082 611.967 745.082 613.9C745.082 615.833 744.382 617.5 742.982 618.9C741.649 620.233 739.949 620.9 737.882 620.9ZM732.282 683V630H743.682V683H732.282ZM758.321 683V630H769.721V637.7H770.321C770.788 636.767 771.588 635.633 772.721 634.3C773.854 632.9 775.421 631.667 777.421 630.6C779.488 629.533 782.088 629 785.221 629C789.154 629 792.454 629.9 795.121 631.7C797.788 633.5 799.788 635.9 801.121 638.9C802.521 641.9 803.221 645.2 803.221 648.8V683H791.821V650C791.821 646.8 790.921 644.1 789.121 641.9C787.388 639.7 784.788 638.6 781.321 638.6C778.588 638.6 776.354 639.3 774.621 640.7C772.954 642.033 771.721 643.8 770.921 646C770.121 648.133 769.721 650.433 769.721 652.9V683H758.321ZM842.331 704.1C837.731 704.1 833.931 703.5 830.931 702.3C827.931 701.1 825.531 699.6 823.731 697.8C821.931 696.067 820.598 694.3 819.731 692.5C818.865 690.767 818.298 689.3 818.031 688.1C817.765 686.9 817.631 686.3 817.631 686.3H828.931C828.931 686.3 829.065 686.7 829.331 687.5C829.598 688.367 830.165 689.333 831.031 690.4C831.965 691.533 833.331 692.5 835.131 693.3C836.931 694.167 839.298 694.6 842.231 694.6C845.698 694.6 848.465 693.9 850.531 692.5C852.665 691.167 854.165 689.367 855.031 687.1C855.965 684.9 856.431 682.5 856.431 679.9V673.9H855.931C855.198 675.033 854.131 676.3 852.731 677.7C851.398 679.033 849.598 680.2 847.331 681.2C845.065 682.2 842.331 682.7 839.131 682.7C835.131 682.7 831.631 681.933 828.631 680.4C825.698 678.867 823.231 676.833 821.231 674.3C819.298 671.7 817.831 668.8 816.831 665.6C815.831 662.4 815.331 659.133 815.331 655.8C815.331 652.467 815.831 649.233 816.831 646.1C817.831 642.9 819.298 640.033 821.231 637.5C823.231 634.9 825.698 632.833 828.631 631.3C831.631 629.767 835.131 629 839.131 629C842.331 629 845.065 629.5 847.331 630.5C849.598 631.433 851.431 632.6 852.831 634C854.231 635.333 855.265 636.6 855.931 637.8H856.431V630H867.831V679.8C867.831 684.533 866.865 688.733 864.931 692.4C862.998 696.067 860.131 698.933 856.331 701C852.531 703.067 847.865 704.1 842.331 704.1ZM841.731 673.3C844.998 673.3 847.731 672.467 849.931 670.8C852.131 669.067 853.765 666.867 854.831 664.2C855.898 661.533 856.431 658.733 856.431 655.8C856.431 652.867 855.898 650.067 854.831 647.4C853.765 644.733 852.131 642.567 849.931 640.9C847.731 639.233 844.998 638.4 841.731 638.4C838.398 638.4 835.631 639.233 833.431 640.9C831.231 642.567 829.598 644.733 828.531 647.4C827.465 650.067 826.931 652.867 826.931 655.8C826.931 658.733 827.465 661.533 828.531 664.2C829.598 666.867 831.231 669.067 833.431 670.8C835.631 672.467 838.398 673.3 841.731 673.3ZM506.221 756C509.554 756 512.321 756.533 514.521 757.6C516.788 758.667 518.588 759.9 519.921 761.3C521.254 762.7 522.221 763.9 522.821 764.9H523.421V757H534.821V810H523.421V802.1H522.821C522.221 803.1 521.254 804.3 519.921 805.7C518.588 807.1 516.788 808.333 514.521 809.4C512.321 810.467 509.554 811 506.221 811C502.221 811 498.721 810.233 495.721 808.7C492.788 807.1 490.321 805 488.321 802.4C486.321 799.733 484.821 796.767 483.821 793.5C482.888 790.233 482.421 786.9 482.421 783.5C482.421 780.1 482.888 776.767 483.821 773.5C484.821 770.233 486.321 767.3 488.321 764.7C490.321 762.033 492.788 759.933 495.721 758.4C498.721 756.8 502.221 756 506.221 756ZM508.721 765.5C505.454 765.5 502.721 766.4 500.521 768.2C498.321 769.933 496.654 772.167 495.521 774.9C494.454 777.633 493.921 780.5 493.921 783.5C493.921 786.5 494.454 789.367 495.521 792.1C496.654 794.833 498.321 797.1 500.521 798.9C502.721 800.633 505.454 801.5 508.721 801.5C511.988 801.5 514.688 800.633 516.821 798.9C519.021 797.1 520.654 794.833 521.721 792.1C522.854 789.367 523.421 786.5 523.421 783.5C523.421 780.5 522.854 777.633 521.721 774.9C520.654 772.167 519.021 769.933 516.821 768.2C514.688 766.4 511.988 765.5 508.721 765.5ZM548.165 810V757H559.565V764.7H560.165C560.631 763.767 561.431 762.633 562.565 761.3C563.698 759.9 565.265 758.667 567.265 757.6C569.331 756.533 571.931 756 575.065 756C578.998 756 582.298 756.9 584.965 758.7C587.631 760.5 589.631 762.9 590.965 765.9C592.365 768.9 593.065 772.2 593.065 775.8V810H581.665V777C581.665 773.8 580.765 771.1 578.965 768.9C577.231 766.7 574.631 765.6 571.165 765.6C568.431 765.6 566.198 766.3 564.465 767.7C562.798 769.033 561.565 770.8 560.765 773C559.965 775.133 559.565 777.433 559.565 779.9V810H548.165ZM606.336 829.5C604.669 829.5 603.303 829.433 602.236 829.3C601.169 829.167 600.636 829.1 600.636 829.1V819.6C600.636 819.6 601.169 819.633 602.236 819.7C603.303 819.833 604.469 819.9 605.736 819.9C609.403 819.9 612.403 819.2 614.736 817.8C617.136 816.467 619.169 814.1 620.836 810.7L600.636 757H612.236L626.536 796.7L640.836 757H652.636L632.636 809.4C629.969 816.267 626.569 821.333 622.436 824.6C618.303 827.867 612.936 829.5 606.336 829.5ZM675.92 810L659.02 757H670.52L682.12 795.3L694.32 757H704.92L717.12 795.3L728.72 757H740.32L723.32 810H711.22L699.62 773.6L688.12 810H675.92ZM751.02 810V734H762.42V764.7H763.02C763.487 763.767 764.287 762.633 765.42 761.3C766.554 759.9 768.12 758.667 770.12 757.6C772.187 756.533 774.787 756 777.92 756C781.854 756 785.154 756.9 787.82 758.7C790.487 760.5 792.487 762.9 793.82 765.9C795.22 768.9 795.92 772.2 795.92 775.8V810H784.52V777C784.52 773.8 783.62 771.1 781.82 768.9C780.087 766.7 777.487 765.6 774.02 765.6C771.287 765.6 769.054 766.3 767.32 767.7C765.654 769.033 764.42 770.8 763.62 773C762.82 775.133 762.42 777.433 762.42 779.9V810H751.02ZM833.807 811C829.34 811 825.474 810.233 822.207 808.7C819.007 807.1 816.34 805 814.207 802.4C812.14 799.733 810.574 796.767 809.507 793.5C808.507 790.233 808.007 786.9 808.007 783.5C808.007 780.167 808.507 776.867 809.507 773.6C810.507 770.333 812.04 767.367 814.107 764.7C816.174 762.033 818.807 759.933 822.007 758.4C825.207 756.8 828.974 756 833.307 756C837.974 756 842.074 757.067 845.607 759.2C849.207 761.267 852.007 764.367 854.007 768.5C856.074 772.567 857.107 777.633 857.107 783.7V786.8H819.507C819.774 790.867 821.14 794.367 823.607 797.3C826.074 800.233 829.474 801.7 833.807 801.7C836.274 801.7 838.307 801.3 839.907 800.5C841.507 799.633 842.74 798.667 843.607 797.6C844.474 796.533 845.074 795.6 845.407 794.8C845.807 794 846.007 793.6 846.007 793.6H856.607C856.607 793.6 856.44 794.2 856.107 795.4C855.774 796.533 855.14 797.967 854.207 799.7C853.34 801.433 852.074 803.167 850.407 804.9C848.74 806.633 846.54 808.1 843.807 809.3C841.074 810.433 837.74 811 833.807 811ZM819.607 778.8H846.107C845.84 774.133 844.44 770.7 841.907 768.5C839.44 766.3 836.54 765.2 833.207 765.2C829.474 765.2 826.374 766.433 823.907 768.9C821.44 771.3 820.007 774.6 819.607 778.8ZM869.454 810V757H880.854V764H881.254C882.254 761.933 883.821 760.1 885.954 758.5C888.154 756.833 891.321 756 895.454 756C896.721 756 897.787 756.067 898.654 756.2C899.587 756.333 900.054 756.4 900.054 756.4V767.4C900.054 767.4 899.554 767.333 898.554 767.2C897.554 767.067 896.421 767 895.154 767C890.487 767 886.921 768.333 884.454 771C882.054 773.6 880.854 777.833 880.854 783.7V810H869.454ZM931.366 811C926.899 811 923.032 810.233 919.766 808.7C916.566 807.1 913.899 805 911.766 802.4C909.699 799.733 908.132 796.767 907.066 793.5C906.066 790.233 905.566 786.9 905.566 783.5C905.566 780.167 906.066 776.867 907.066 773.6C908.066 770.333 909.599 767.367 911.666 764.7C913.732 762.033 916.366 759.933 919.566 758.4C922.766 756.8 926.532 756 930.866 756C935.532 756 939.632 757.067 943.166 759.2C946.766 761.267 949.566 764.367 951.566 768.5C953.632 772.567 954.666 777.633 954.666 783.7V786.8H917.066C917.332 790.867 918.699 794.367 921.166 797.3C923.632 800.233 927.032 801.7 931.366 801.7C933.832 801.7 935.866 801.3 937.466 800.5C939.066 799.633 940.299 798.667 941.166 797.6C942.032 796.533 942.632 795.6 942.966 794.8C943.366 794 943.566 793.6 943.566 793.6H954.166C954.166 793.6 953.999 794.2 953.666 795.4C953.332 796.533 952.699 797.967 951.766 799.7C950.899 801.433 949.632 803.167 947.966 804.9C946.299 806.633 944.099 808.1 941.366 809.3C938.632 810.433 935.299 811 931.366 811ZM917.166 778.8H943.666C943.399 774.133 941.999 770.7 939.466 768.5C936.999 766.3 934.099 765.2 930.766 765.2C927.032 765.2 923.932 766.433 921.466 768.9C918.999 771.3 917.566 774.6 917.166 778.8Z" fill="white"/>
</g>
<defs>
<linearGradient id="paint0_linear_71_2" x1="1216.34" y1="569.413" x2="1496.73" y2="569.413" gradientUnits="userSpaceOnUse">
<stop stop-color="#BFFBFF"/>
<stop offset="1" stop-color="#0085FF"/>
</linearGradient>
<linearGradient id="paint1_linear_71_2" x1="1350.67" y1="802.733" x2="1005.04" y2="469.945" gradientUnits="userSpaceOnUse">
<stop stop-color="#9DD6FF"/>
<stop offset="1" stop-color="#B27EFE"/>
</linearGradient>
<linearGradient id="paint2_linear_71_2" x1="736.416" y1="641.565" x2="1178.35" y2="641.565" gradientUnits="userSpaceOnUse">
<stop stop-color="#99B6FF"/>
<stop offset="1" stop-color="#89F1FF"/>
</linearGradient>
<linearGradient id="paint3_linear_71_2" x1="1510.06" y1="230.59" x2="1521.52" y2="314.811" gradientUnits="userSpaceOnUse">
<stop stop-color="#99B6FF"/>
<stop offset="1" stop-color="#89F1FF"/>
</linearGradient>
<linearGradient id="paint4_linear_71_2" x1="341.923" y1="364" x2="341.923" y2="547.815" gradientUnits="userSpaceOnUse">
<stop stop-color="#64C7FF"/>
<stop offset="1" stop-color="#64C7FF" stop-opacity="0"/>
</linearGradient>
<linearGradient id="paint5_linear_71_2" x1="1618.93" y1="484" x2="1618.93" y2="514" gradientUnits="userSpaceOnUse">
<stop stop-color="#64C7FF"/>
<stop offset="1" stop-color="#64C7FF" stop-opacity="0"/>
</linearGradient>
<linearGradient id="paint6_linear_71_2" x1="736.416" y1="641.565" x2="1178.35" y2="641.565" gradientUnits="userSpaceOnUse">
<stop stop-color="#99B6FF"/>
<stop offset="1" stop-color="#89F1FF"/>
</linearGradient>
</defs>
</svg>
